<svg width="80" height="80" viewBox="0 0 80 80" fill="none" xmlns="http://www.w3.org/2000/svg">
<rect width="80" height="80" fill="white"/>
<path d="M34.0699 53.935C33.3606 54.9887 33.5379 56.5288 34.46 57.3393C35.3467 58.1094 40.17 62 47.1567 62C54.9591 62 59.9597 57.2178 59.9952 57.1772C60.8109 56.2856 60.8463 54.8266 60.1016 53.854C59.3568 52.8813 58.0446 52.7597 57.1934 53.5703C57.1579 53.6108 53.1858 57.1772 47.1567 57.1772C41.4113 57.1772 37.4391 53.8945 37.0135 53.5297C36.0914 52.6787 34.7792 52.8813 34.0699 53.935Z" fill="#FFC60B"/>
<path fill-rule="evenodd" clip-rule="evenodd" d="M71.8601 29.1699C71.9206 29.1398 71.9822 29.1091 72.0455 29.0781V41.3523C72.0455 46.2315 68.5754 49.8909 63.9979 49.8909C59.4203 49.8909 55.9502 46.1934 55.9502 41.3523V40.3994V37.2737C55.9502 35.0247 54.732 33.4618 52.8124 33.4618C50.819 33.4618 49.6377 35.0247 49.6377 37.2737V46.9177C49.6377 48.7855 48.4933 50.0053 46.9428 50.0053C45.3554 50.0053 44.248 48.7474 44.248 46.9177V37.2737C44.248 35.0247 43.0297 33.4618 41.1101 33.4618C38.8952 33.4618 37.9354 35.0247 37.9354 37.2737V41.1999V41.3523C37.9354 46.2315 34.5022 49.8909 29.9616 49.8909H29.7032C27.5621 49.8909 25.7163 49.1285 24.3873 47.7182C24.2766 47.6038 24.1658 47.4894 24.092 47.3751C23.8899 47.5211 23.6215 47.7014 23.2928 47.9222C23.021 48.1049 22.7079 48.3152 22.3569 48.5568C21.028 49.3954 18.8869 50.0434 16.7827 50.0434C11.2084 50.0434 7 45.3929 7 39.2177C7 33.0806 11.2084 28.7732 17.2257 28.7732C19.0461 28.7732 21.9019 29.5216 22.2223 29.6056C22.2333 29.6084 22.2413 29.6105 22.2462 29.6118C22.3394 29.6225 22.4529 29.6422 22.5892 29.6658C22.9388 29.7265 23.4383 29.8131 24.1289 29.8405C25.0518 29.8786 26.0854 29.6499 27.2298 29.1163V41.4286C27.2298 43.182 28.3373 44.4781 29.8877 44.4781C31.5859 44.4781 32.5826 43.2202 32.5826 41.3905V32.1276C32.5826 30.2598 33.6901 29.04 35.2774 29.04C36.6802 29.04 37.5662 29.8405 37.7508 31.1365C39.0428 29.6499 40.741 28.8113 42.7344 28.8113C44.9494 28.8113 46.869 29.8024 48.2718 31.6321C49.7853 29.8405 52.111 28.8113 53.9568 28.8113C58.3128 28.8113 61.303 31.4415 61.303 36.2826V40.4375V41.3523C61.303 43.2202 62.4474 44.44 63.9979 44.44C65.5852 44.44 66.6927 43.182 66.6927 41.3523V29.04C66.8012 29.0872 66.9071 29.1371 67.0143 29.1877C67.5999 29.4638 68.2247 29.7584 69.5352 29.7262C70.7442 29.7262 71.2505 29.4738 71.8601 29.1699ZM11.9836 39.4845C11.9836 42.6865 14.1986 45.088 17.1518 45.088C17.964 45.088 20.4373 44.6305 22.2831 42.3434V38.2266C22.2831 35.1009 19.7359 33.7286 17.1887 33.7286C13.7556 33.7286 11.9836 36.6256 11.9836 39.4845Z" fill="#272727"/>
<path d="M71.6348 24.5185C71.6348 25.8889 70.5318 27 69.1348 27C67.7745 27 66.6348 25.8889 66.6348 24.5185C66.6348 23.1481 67.7377 22 69.1348 22C70.5318 22 71.6348 23.1111 71.6348 24.5185Z" fill="#272727"/>
</svg>
