<?xml version="1.0" encoding="UTF-8"?>
<svg version="1.1" xmlns="http://www.w3.org/2000/svg" width="225" height="225">
<path d="M0 0 C74.25 0 148.5 0 225 0 C225 74.25 225 148.5 225 225 C150.75 225 76.5 225 0 225 C0 150.75 0 76.5 0 0 Z " fill="#FEFEFE" transform="translate(0,0)"/>
<path d="M0 0 C0.33 8.25 0.66 16.5 1 25 C3.31 23.68 5.62 22.36 8 21 C15.15651317 19.62917494 21.91424025 21.05347701 28 25 C33.57389708 30.32616832 37.1429924 37.11931757 37.5 44.875 C37.17098446 52.40710587 34.57486455 60.74369914 29 66 C22.1527698 70.60146433 16.14596468 71.86224696 8 71 C4.96507137 69.83678694 2.32755049 68.32755049 0 66 C-0.58201172 66.98226562 -0.58201172 66.98226562 -1.17578125 67.984375 C-3 70 -3 70 -5.48046875 70.390625 C-6.37378906 70.34421875 -7.26710937 70.2978125 -8.1875 70.25 C-9.08855469 70.21390625 -9.98960937 70.1778125 -10.91796875 70.140625 C-11.60503906 70.09421875 -12.29210937 70.0478125 -13 70 C-13.09276991 61.74184786 -13.16379982 53.48391423 -13.20724869 45.22536945 C-13.22810438 41.39037453 -13.25638415 37.55573669 -13.30175781 33.72094727 C-13.34528908 30.01860747 -13.36915229 26.31661066 -13.37950897 22.61403465 C-13.38688742 21.20303131 -13.40129614 19.79204628 -13.42292023 18.38118935 C-13.45204479 16.40185552 -13.45363467 14.42217498 -13.45410156 12.44262695 C-13.46298401 11.31677689 -13.47186646 10.19092682 -13.48101807 9.03096008 C-12.89175037 5.31790439 -11.59228686 3.67044939 -9 1 C-7 0 -7 0 0 0 Z " fill="#070707" transform="translate(188,66)"/>
<path d="M0 0 C0.804375 0.53625 1.60875 1.0725 2.4375 1.625 C4.32434423 2.94094619 4.32434423 2.94094619 6.4375 3.625 C8.1806081 2.7487243 8.1806081 2.7487243 9.8125 1.25 C15.44960372 -2.62815782 21.85130315 -2.29187195 28.4375 -1.375 C32.24881276 0.18920705 35.04116581 1.77498524 37.6875 4.9375 C38.16703125 5.49050781 38.6465625 6.04351562 39.140625 6.61328125 C43.4103701 13.23653042 42.77006735 20.62210739 42.75 28.1875 C42.76611328 29.40630859 42.78222656 30.62511719 42.79882812 31.88085938 C42.79947266 33.05583984 42.80011719 34.23082031 42.80078125 35.44140625 C42.80376221 36.50818604 42.80674316 37.57496582 42.80981445 38.67407227 C42.38600988 42.03310564 41.43353765 43.91424523 39.4375 46.625 C36.48085481 48.1033226 33.69520263 47.68532783 30.4375 47.625 C30.407771 46.24779785 30.407771 46.24779785 30.37744141 44.84277344 C30.29923045 41.42828175 30.21253416 38.01422298 30.12011719 34.60009766 C30.08189334 33.12394464 30.04702897 31.64770057 30.015625 30.17138672 C29.96983014 28.04621906 29.91186163 25.92167458 29.8515625 23.796875 C29.8201416 22.5190918 29.7887207 21.24130859 29.75634766 19.92480469 C29.46238248 16.88251274 29.13974419 15.125053 27.4375 12.625 C25.11063547 11.46156773 23.59028587 11.42604012 21 11.375 C19.82630859 11.33632812 19.82630859 11.33632812 18.62890625 11.296875 C15.92011649 11.70246919 15.1158906 12.51033049 13.4375 14.625 C12.1374786 17.22504281 12.27739448 19.20443261 12.2265625 22.11328125 C12.18402344 23.76166992 12.18402344 23.76166992 12.140625 25.44335938 C12.08880718 27.76091126 12.04445821 30.07864294 12.0078125 32.39648438 C11.976875 33.49927734 11.9459375 34.60207031 11.9140625 35.73828125 C11.89424316 36.74673096 11.87442383 37.75518066 11.85400391 38.79418945 C11.37429697 42.0545657 10.36527354 43.97290995 8.4375 46.625 C5.48085481 48.1033226 2.69520263 47.68532783 -0.5625 47.625 C-0.57708252 46.67657227 -0.59166504 45.72814453 -0.60668945 44.75097656 C-0.66782564 41.2245206 -0.7419913 37.69883557 -0.82495117 34.17285156 C-0.8581588 32.6482166 -0.88620378 31.12345994 -0.90893555 29.59863281 C-0.94255958 27.40377046 -0.99487542 25.21001912 -1.05078125 23.015625 C-1.07696533 21.69594727 -1.10314941 20.37626953 -1.13012695 19.01660156 C-1.57605178 15.51869772 -2.06428183 14.0601204 -4.5625 11.625 C-6.92189705 10.9561297 -6.92189705 10.9561297 -9.5 11.0625 C-10.35464844 11.04058594 -11.20929687 11.01867187 -12.08984375 10.99609375 C-15.63180157 11.89697086 -16.57565973 13.61624514 -18.5625 16.625 C-19.11760594 19.52872853 -19.11760594 19.52872853 -18.99609375 22.625 C-19.00576172 23.759375 -19.01542969 24.89375 -19.02539062 26.0625 C-19.00846332 28.43753105 -18.98762982 30.81253747 -18.96289062 33.1875 C-19.04617271 41.80964517 -19.04617271 41.80964517 -21.66015625 45.9375 C-25.20611175 47.99921302 -27.52643975 47.75327029 -31.5625 47.625 C-31.66241855 43.25087332 -31.73445484 38.87737563 -31.78222656 34.50244141 C-31.80216981 33.01859952 -31.8293349 31.53483445 -31.86425781 30.05126953 C-32.29866462 11.10346656 -32.29866462 11.10346656 -26.1496582 3.99072266 C-18.99875189 -2.4147489 -8.80102299 -3.39688607 0 0 Z " fill="#020202" transform="translate(31.5625,88.375)"/>
<path d="M0 0 C5.24796125 3.60466025 9.54517928 9.04009912 10.93359375 15.328125 C11.96444478 25.15302618 10.32653671 31.79888463 5.24609375 40.078125 C-0.27247573 45.44754396 -5.31094285 47.65999193 -13.06640625 47.953125 C-20.55378307 47.64652983 -25.68176929 45.8882075 -30.875 40.42578125 C-36.89361156 32.90612508 -37.8520191 25.79288935 -37.06640625 16.328125 C-35.68676971 9.47631666 -31.83400763 4.24414525 -26.35546875 0.00390625 C-18.50736117 -4.71489261 -7.97417184 -4.15534826 0 0 Z " fill="#030303" transform="translate(160.06640625,89.671875)"/>
<path d="M0 0 C1.91470844 -0.13547465 3.83218481 -0.23220869 5.75 -0.3125 C6.81734375 -0.37050781 7.8846875 -0.42851563 8.984375 -0.48828125 C12 0 12 0 14.02734375 2.13085938 C16.11339351 5.1649258 17.33191691 7.93466404 18.578125 11.39453125 C19.23554687 13.19760742 19.23554687 13.19760742 19.90625 15.03710938 C20.35437603 16.29549838 20.8022901 17.55396288 21.25 18.8125 C21.71266173 20.09081361 22.17619528 21.36881204 22.640625 22.64648438 C23.76902293 25.76133282 24.88845722 28.87910547 26 32 C29.15539533 24.5564232 32.15279678 17.10607555 34.75976562 9.453125 C36.19632052 5.45438591 37.49104388 2.49469771 41 0 C43.796875 -0.390625 43.796875 -0.390625 46.75 -0.25 C48.22726563 -0.19585937 48.22726563 -0.19585937 49.734375 -0.140625 C50.48203125 -0.09421875 51.2296875 -0.0478125 52 0 C51.3606392 3.70895415 50.32896549 7.00782228 48.94628906 10.50537109 C48.52204651 11.58354095 48.09780396 12.66171082 47.66070557 13.77255249 C47.20032898 14.92784454 46.73995239 16.0831366 46.265625 17.2734375 C45.79058533 18.47054352 45.31554565 19.66764954 44.82611084 20.90103149 C43.8204617 23.43234627 42.81119165 25.96218365 41.79980469 28.49121094 C40.51169816 31.71401211 39.23633901 34.94169081 37.96417618 38.17081261 C36.73986946 41.27093936 35.50186617 44.3655508 34.265625 47.4609375 C33.58720551 49.18780289 33.58720551 49.18780289 32.89508057 50.94955444 C30.15077651 57.76223326 27.51922974 64.06730855 21.75 68.875 C17.83916649 70.47488643 14.21060097 70.68577605 10 71 C8.68 67.37 7.36 63.74 6 60 C7.2375 59.79375 8.475 59.5875 9.75 59.375 C13.21575144 58.50241719 13.9617001 58.04212989 16.5 55.25 C18.32475006 51.29637487 18.73017219 48.38325816 17.4324646 44.14758301 C16.61741285 42.0348414 15.73536572 39.96372873 14.82421875 37.890625 C14.4983931 37.1237738 14.17256744 36.35692261 13.83686829 35.5668335 C12.79716289 33.12342883 11.74337744 30.68645469 10.6875 28.25 C9.30953802 25.04977838 7.9383133 21.84678211 6.57421875 18.640625 C6.08754227 17.49793152 6.08754227 17.49793152 5.59103394 16.33215332 C3.33698465 10.97222654 1.48693811 5.6287159 0 0 Z " fill="#030303" transform="translate(73,88)"/>
<path d="M0 0 C4.09802773 2.55816276 7.17340923 5.48113562 9 10 C9.59625167 16.1612673 9.02737586 19.05208109 5 24 C2.723789 26.67942553 1.17980743 27.49719181 -2.3125 27.9375 C-5.87911062 28.22166898 -7.00932049 27.99551236 -10.375 26.375 C-13.75793743 23.31424708 -15.68838328 21.29673066 -16.31640625 16.66796875 C-16.58213652 10.95048191 -15.96847152 7.39749547 -12 3 C-8.08213542 -0.17664696 -4.97750546 -0.77237154 0 0 Z " fill="#F8F8F8" transform="translate(204,98)"/>
<path d="M0 0 C3.8187608 2.11036781 6.3582326 4.96679972 8 9 C8.78671167 14.61936904 8.22202478 19.22251498 5 24 C2.01540997 27.24041204 0.46531846 27.93352593 -3.9375 28.5625 C-8.69747497 28.31055426 -10.79366097 26.43536324 -14 23 C-16.5950686 18.7535241 -16.70038082 13.84287715 -16 9 C-12.39120235 2.04017597 -8.13382468 -1.68933282 0 0 Z " fill="#F9F9F9" transform="translate(151,98)"/>
</svg>
